<svg width="15" height="15" viewBox="0 0 15 15" fill="none" xmlns="http://www.w3.org/2000/svg">
<path fill-rule="evenodd" clip-rule="evenodd" d="M1.74362 4.30366C2.70362 4.30366 3.47163 3.53566 3.47163 2.57566C3.47163 1.61566 2.70362 0.847656 1.74362 0.847656C0.783625 0.847656 0.015625 1.61566 0.015625 2.57566C0.015625 3.53566 0.783625 4.30366 1.74362 4.30366ZM3.15344 5.51978H0.273438V14.9278H3.15344V5.51978ZM9.61431 7.88767C8.46231 7.88767 7.82231 8.65567 7.82231 9.99967C7.82231 11.4077 7.82231 14.9277 7.88631 14.9277H5.07031V5.51967H7.88631V6.79967C7.88631 6.79967 8.71831 5.26367 10.7023 5.26367C12.6863 5.26367 14.0943 6.47967 14.0943 8.97567V14.9277H11.2143V9.99967C11.2143 8.65567 10.7023 7.88767 9.61431 7.88767Z" fill="white"/>
</svg>
