<svg width="15" height="15" viewBox="0 0 15 15" fill="none" xmlns="http://www.w3.org/2000/svg">
<path fill-rule="evenodd" clip-rule="evenodd" d="M1.81394 3.64741C2.77394 3.64741 3.54194 2.87941 3.54194 1.91941C3.54194 0.959406 2.77394 0.191406 1.81394 0.191406C0.853937 0.191406 0.0859375 0.959406 0.0859375 1.91941C0.0859375 2.87941 0.853937 3.64741 1.81394 3.64741ZM3.22375 4.86353H0.34375V14.2715H3.22375V4.86353ZM9.68463 7.23142C8.53263 7.23142 7.89262 7.99942 7.89262 9.34342C7.89262 10.7514 7.89262 14.2714 7.95662 14.2714H5.14062V4.86342H7.95662V6.14342C7.95662 6.14342 8.78862 4.60742 10.7726 4.60742C12.7566 4.60742 14.1646 5.82342 14.1646 8.31942V14.2714H11.2846V9.34342C11.2846 7.99942 10.7726 7.23142 9.68463 7.23142Z" fill="#11181C"/>
</svg>
