<svg width="14" height="18" viewBox="0 0 14 18" fill="none" xmlns="http://www.w3.org/2000/svg">
<path d="M2.52047 10.2801C2.71247 10.3441 2.96847 10.2801 3.03247 10.0241C3.09647 9.83214 3.16047 9.44814 3.22447 9.25614C3.28847 9.00014 3.28847 8.93614 3.09647 8.74414C2.71247 8.29614 2.45647 7.72014 2.45647 6.88814C2.45647 4.45614 4.24847 2.28014 7.19247 2.28014C9.75247 2.28014 11.1605 3.88014 11.1605 5.92814C11.1605 8.68014 9.94447 11.0481 8.08847 11.0481C7.06447 11.0481 6.36047 10.2161 6.55247 9.19214C6.87247 7.97614 7.38447 6.69614 7.38447 5.80014C7.38447 5.03214 6.93647 4.39214 6.10447 4.39214C5.08047 4.39214 4.24848 5.48014 4.24848 6.88814C4.24848 7.78414 4.56848 8.42414 4.56848 8.42414C4.56848 8.42414 3.54447 12.8401 3.35247 13.6721C2.96847 15.2081 3.28847 17.1281 3.35247 17.3201C3.35247 17.4481 3.54448 17.4481 3.60847 17.3841C3.67247 17.2561 4.95247 15.7841 5.33647 14.2481C5.46447 13.8001 6.04047 11.6241 6.04047 11.6241C6.36047 12.2641 7.32047 12.8401 8.40847 12.8401C11.4805 12.8401 13.5925 10.0241 13.5925 6.24814C13.5925 3.43214 11.1605 0.744141 7.51247 0.744141C2.96847 0.744141 0.664475 4.00814 0.664475 6.76014C0.536475 8.29614 1.17647 9.76814 2.52047 10.2801Z" fill="#11181C"/>
</svg>
