<svg width="13" height="17" viewBox="0 0 13 17" fill="none" xmlns="http://www.w3.org/2000/svg">
<path d="M1.91891 9.69811C2.11091 9.76211 2.36691 9.69811 2.43091 9.44211C2.49491 9.25011 2.55891 8.86611 2.62291 8.67411C2.68691 8.41811 2.68691 8.35411 2.49491 8.16211C2.11091 7.71411 1.85491 7.13811 1.85491 6.30611C1.85491 3.87411 3.64691 1.69811 6.59091 1.69811C9.15091 1.69811 10.5589 3.29811 10.5589 5.34611C10.5589 8.09811 9.34291 10.4661 7.48691 10.4661C6.46291 10.4661 5.75891 9.63411 5.95091 8.61011C6.27091 7.39411 6.78291 6.11411 6.78291 5.21811C6.78291 4.45011 6.33491 3.81011 5.50291 3.81011C4.47891 3.81011 3.64691 4.89811 3.64691 6.30611C3.64691 7.20211 3.96691 7.84211 3.96691 7.84211C3.96691 7.84211 2.94291 12.2581 2.75091 13.0901C2.36691 14.6261 2.68691 16.5461 2.75091 16.7381C2.75091 16.8661 2.94291 16.8661 3.00691 16.8021C3.07091 16.6741 4.35091 15.2021 4.73491 13.6661C4.86291 13.2181 5.43891 11.0421 5.43891 11.0421C5.75891 11.6821 6.71891 12.2581 7.80691 12.2581C10.8789 12.2581 12.9909 9.44211 12.9909 5.66611C12.9909 2.85011 10.5589 0.162109 6.91091 0.162109C2.36691 0.162109 0.0629122 3.42611 0.0629122 6.17811C-0.0650878 7.71411 0.574912 9.18611 1.91891 9.69811Z" fill="white"/>
</svg>
