<svg width="24" height="24" viewBox="0 0 24 24" fill="none" xmlns="http://www.w3.org/2000/svg">
<path d="M1.99219 7L10.1571 12.7154C10.8183 13.1783 11.1489 13.4097 11.5085 13.4993C11.8261 13.5785 12.1583 13.5785 12.4759 13.4993C12.8355 13.4097 13.1661 13.1783 13.8273 12.7154L21.9922 7M6.79219 20H17.1922C18.8723 20 19.7124 20 20.3542 19.673C20.9186 19.3854 21.3776 18.9265 21.6652 18.362C21.9922 17.7202 21.9922 16.8802 21.9922 15.2V8.8C21.9922 7.11984 21.9922 6.27976 21.6652 5.63803C21.3776 5.07354 20.9186 4.6146 20.3542 4.32698C19.7124 4 18.8723 4 17.1922 4H6.79219C5.11203 4 4.27195 4 3.63022 4.32698C3.06573 4.6146 2.60679 5.07354 2.31917 5.63803C1.99219 6.27976 1.99219 7.11984 1.99219 8.8V15.2C1.99219 16.8802 1.99219 17.7202 2.31917 18.362C2.60679 18.9265 3.06573 19.3854 3.63022 19.673C4.27195 20 5.11203 20 6.79219 20Z" stroke="#11181C" stroke-width="2" stroke-linecap="round" stroke-linejoin="round"/>
</svg>
