<svg width="24" height="25" viewBox="0 0 24 25" fill="none" xmlns="http://www.w3.org/2000/svg">
<path d="M20 21.1484C20 19.7529 20 19.0551 19.8278 18.4873C19.44 17.2089 18.4395 16.2085 17.1611 15.8207C16.5933 15.6484 15.8956 15.6484 14.5 15.6484H9.5C8.10444 15.6484 7.40665 15.6484 6.83886 15.8207C5.56045 16.2085 4.56004 17.2089 4.17224 18.4873C4 19.0551 4 19.7529 4 21.1484M16.5 7.64844C16.5 10.1337 14.4853 12.1484 12 12.1484C9.51472 12.1484 7.5 10.1337 7.5 7.64844C7.5 5.16316 9.51472 3.14844 12 3.14844C14.4853 3.14844 16.5 5.16316 16.5 7.64844Z" stroke="#11181C" stroke-width="2" stroke-linecap="round" stroke-linejoin="round"/>
</svg>
