<svg width="16" height="13" viewBox="0 0 16 13" fill="none" xmlns="http://www.w3.org/2000/svg">
<path d="M0.515625 11.375C1.85962 12.271 3.45963 12.783 5.25163 12.783C10.9476 12.783 14.2116 7.98305 13.9556 3.63105C14.5316 3.18305 15.1076 2.67105 15.4916 2.03105C14.9156 2.28705 14.3396 2.41505 13.6996 2.54305C14.3396 2.15905 14.8516 1.58305 15.0436 0.815046C14.4676 1.19905 13.7636 1.45505 13.1236 1.58305C12.5476 1.00705 11.7796 0.623047 10.8836 0.623047C8.89963 0.623047 7.42762 2.47905 7.87562 4.39905C5.31562 4.27105 3.07562 3.05505 1.53962 1.19905C0.707625 2.60705 1.09162 4.39905 2.49962 5.29505C1.98762 5.29505 1.53962 5.16705 1.09162 4.91105C1.02762 6.31905 2.05163 7.66305 3.58763 7.98305C3.13963 8.11105 2.69162 8.11105 2.17962 8.04705C2.56362 9.26305 3.71562 10.159 5.05962 10.159C3.77962 11.055 2.11562 11.567 0.515625 11.375Z" fill="#11181C"/>
</svg>
